<svg xmlns="http://www.w3.org/2000/svg" xmlns:xlink="http://www.w3.org/1999/xlink" version="1.1" width="256" height="256" viewBox="0 0 256 256" xml:space="preserve">
<g style="stroke: none; stroke-width: 0; stroke-dasharray: none; stroke-linecap: butt; stroke-linejoin: miter; stroke-miterlimit: 10; fill: none; fill-rule: nonzero; opacity: 1;" transform="translate(1.4065934065934016 1.4065934065934016) scale(2.81 2.81)">
	<polygon points="18.75,33.15 21.52,26.32 48.59,26.77 59.65,30.95 66.92,36.99 40.63,38.55 22.5,39.12 " style="stroke: none; stroke-width: 1; stroke-dasharray: none; stroke-linecap: butt; stroke-linejoin: miter; stroke-miterlimit: 10; fill: rgb(32,36,30); fill-rule: nonzero; opacity: 1;" transform="  matrix(1 0 0 1 0 0) "/>
	<path d="M 76.377 38.143 l -7.336 -1.897 l -4.754 -4.129 c -6.202 -5.386 -14.141 -8.353 -22.354 -8.353 H 24.381 c -0.022 0 -0.043 0.003 -0.065 0.003 c -0.017 0.001 -0.033 0.001 -0.05 0.002 c -2.984 0.03 -5.789 1.197 -7.908 3.304 l -8.382 8.332 c -3.702 3.681 -6.151 8.342 -7.083 13.479 l -0.817 4.508 c -0.352 1.943 0.543 3.939 2.229 4.969 l 1.919 1.172 l 21.386 2.12 h 37.339 l 20.874 -0.521 l 1.825 -0.291 c 2.521 -0.403 4.352 -2.548 4.352 -5.101 C 89.999 47.454 84.398 40.218 76.377 38.143 z M 41.933 26.764 c 7.49 0 14.731 2.705 20.388 7.617 l 1.99 1.729 H 41.366 l -1.321 -9.346 H 41.933 z M 22.962 33.828 l 2.482 -7.064 h 11.571 l 1.321 9.346 H 24.578 c -0.563 0 -1.073 -0.264 -1.398 -0.723 C 22.855 34.927 22.775 34.359 22.962 33.828 z" style="stroke: none; stroke-width: 1; stroke-dasharray: none; stroke-linecap: butt; stroke-linejoin: miter; stroke-miterlimit: 10; fill: rgb(219,51,40); fill-rule: nonzero; opacity: 1;" transform=" matrix(1 0 0 1 0 0) " stroke-linecap="round"/>
	<path d="M 85.648 53.84 l -1.825 0.291 l -20.874 0.521 H 25.61 l -21.386 -2.12 L 2.305 51.36 c -0.654 -0.399 -1.185 -0.947 -1.574 -1.578 l -0.654 3.609 c -0.352 1.943 0.543 3.939 2.229 4.969 l 1.919 1.172 l 21.386 2.12 h 37.339 l 20.874 -0.521 l 1.825 -0.291 c 2.521 -0.403 4.352 -2.548 4.352 -5.101 c 0 -1.586 -0.209 -3.132 -0.597 -4.612 C 88.67 52.534 87.318 53.573 85.648 53.84 z" style="stroke: none; stroke-width: 1; stroke-dasharray: none; stroke-linecap: butt; stroke-linejoin: miter; stroke-miterlimit: 10; fill: rgb(191,37,37); fill-rule: nonzero; opacity: 1;" transform=" matrix(1 0 0 1 0 0) " stroke-linecap="round"/>
	<path d="M 73.268 66.236 c -5.185 0 -9.402 -4.218 -9.402 -9.402 s 4.218 -9.402 9.402 -9.402 s 9.402 4.218 9.402 9.402 S 78.452 66.236 73.268 66.236 z" style="stroke: none; stroke-width: 1; stroke-dasharray: none; stroke-linecap: butt; stroke-linejoin: miter; stroke-miterlimit: 10; fill: rgb(32,36,30); fill-rule: nonzero; opacity: 1;" transform=" matrix(1 0 0 1 0 0) " stroke-linecap="round"/>
	<path d="M 15.29 66.236 c -5.185 0 -9.402 -4.218 -9.402 -9.402 s 4.218 -9.402 9.402 -9.402 s 9.402 4.218 9.402 9.402 S 20.475 66.236 15.29 66.236 z" style="stroke: none; stroke-width: 1; stroke-dasharray: none; stroke-linecap: butt; stroke-linejoin: miter; stroke-miterlimit: 10; fill: rgb(32,36,30); fill-rule: nonzero; opacity: 1;" transform=" matrix(1 0 0 1 0 0) " stroke-linecap="round"/>
	<path d="M 73.269 61.329 c -0.3 0 -0.599 -0.031 -0.885 -0.091 c -0.284 -0.044 -0.57 -0.135 -0.839 -0.255 c -0.271 -0.104 -0.526 -0.24 -0.781 -0.404 c -0.24 -0.166 -0.479 -0.36 -0.675 -0.555 c -0.839 -0.841 -1.32 -2.01 -1.32 -3.195 c 0 -0.286 0.031 -0.586 0.091 -0.87 c 0.06 -0.286 0.135 -0.57 0.255 -0.841 c 0.104 -0.27 0.255 -0.539 0.404 -0.779 c 0.166 -0.255 0.36 -0.48 0.57 -0.69 c 0.196 -0.211 0.435 -0.39 0.675 -0.555 c 0.255 -0.166 0.51 -0.3 0.781 -0.42 c 0.27 -0.104 0.555 -0.195 0.839 -0.255 c 1.471 -0.284 3.015 0.195 4.065 1.23 c 0.211 0.209 0.39 0.435 0.555 0.69 c 0.166 0.24 0.3 0.51 0.42 0.779 c 0.104 0.271 0.195 0.555 0.255 0.841 c 0.06 0.284 0.089 0.584 0.089 0.87 c 0 1.185 -0.479 2.339 -1.32 3.195 c -0.209 0.195 -0.435 0.39 -0.69 0.555 c -0.24 0.164 -0.495 0.3 -0.765 0.404 c -0.286 0.12 -0.555 0.211 -0.855 0.255 C 73.855 61.298 73.555 61.329 73.269 61.329 z" style="stroke: none; stroke-width: 1; stroke-dasharray: none; stroke-linecap: butt; stroke-linejoin: miter; stroke-miterlimit: 10; fill: rgb(80,83,78); fill-rule: nonzero; opacity: 1;" transform=" matrix(1 0 0 1 0 0) " stroke-linecap="round"/>
	<path d="M 15.289 61.329 c -1.185 0 -2.34 -0.48 -3.18 -1.32 c -0.21 -0.196 -0.39 -0.435 -0.555 -0.675 s -0.3 -0.51 -0.42 -0.781 c -0.105 -0.27 -0.196 -0.555 -0.256 -0.839 c -0.059 -0.286 -0.089 -0.584 -0.089 -0.885 c 0 -1.17 0.48 -2.341 1.32 -3.18 c 0.21 -0.211 0.435 -0.39 0.69 -0.555 c 0.24 -0.166 0.495 -0.3 0.765 -0.42 c 0.27 -0.104 0.555 -0.195 0.855 -0.255 c 1.455 -0.284 3.015 0.195 4.05 1.23 c 0.84 0.839 1.321 1.995 1.321 3.18 c 0 0.3 -0.03 0.599 -0.09 0.885 c -0.06 0.284 -0.135 0.57 -0.255 0.839 c -0.105 0.271 -0.256 0.541 -0.405 0.781 c -0.166 0.24 -0.36 0.479 -0.571 0.675 c -0.209 0.209 -0.435 0.404 -0.675 0.57 c -0.255 0.164 -0.51 0.3 -0.78 0.404 c -0.27 0.12 -0.555 0.211 -0.84 0.255 C 15.874 61.298 15.589 61.329 15.289 61.329 z" style="stroke: none; stroke-width: 1; stroke-dasharray: none; stroke-linecap: butt; stroke-linejoin: miter; stroke-miterlimit: 10; fill: rgb(80,83,78); fill-rule: nonzero; opacity: 1;" transform=" matrix(1 0 0 1 0 0) " stroke-linecap="round"/>
	<path d="M 87.12 45.931 c -0.795 -1.239 -1.737 -2.378 -2.808 -3.391 h -7.47 c 1.762 2.147 4.394 3.391 7.171 3.391 H 87.12 z" style="stroke: none; stroke-width: 1; stroke-dasharray: none; stroke-linecap: butt; stroke-linejoin: miter; stroke-miterlimit: 10; fill: rgb(206,214,206); fill-rule: nonzero; opacity: 1;" transform=" matrix(1 0 0 1 0 0) " stroke-linecap="round"/>
	<path d="M 4.468 46.432 c 1.139 0 2.061 -0.923 2.061 -2.061 v -2.315 c 0 -1.139 -0.923 -2.061 -2.061 -2.061 H 4.319 c -1.243 1.995 -2.19 4.16 -2.84 6.438 H 4.468 z" style="stroke: none; stroke-width: 1; stroke-dasharray: none; stroke-linecap: butt; stroke-linejoin: miter; stroke-miterlimit: 10; fill: rgb(191,37,37); fill-rule: nonzero; opacity: 1;" transform=" matrix(1 0 0 1 0 0) " stroke-linecap="round"/>
</g>
</svg>